<svg width="80" height="80" viewBox="0 0 80 80" fill="none" xmlns="http://www.w3.org/2000/svg">
<g clip-path="url(#clip0_21_408)">
<rect width="80" height="80" rx="8" fill="#00A2ED"/>
<rect y="36" width="93" height="92" rx="41" transform="rotate(-38.9961 0 36)" fill="#2D3336"/>
<path d="M40 44C40.5523 44 41 43.5523 41 43C41 42.4477 40.5523 42 40 42C39.4477 42 39 42.4477 39 43C39 43.5523 39.4477 44 40 44Z" fill="white"/>
<path d="M23 38C23.5523 38 24 37.5523 24 37C24 36.4477 23.5523 36 23 36C22.4477 36 22 36.4477 22 37C22 37.5523 22.4477 38 23 38Z" fill="white"/>
<path d="M30 46C30.5523 46 31 45.5523 31 45C31 44.4477 30.5523 44 30 44C29.4477 44 29 44.4477 29 45C29 45.5523 29.4477 46 30 46Z" fill="white"/>
<path d="M18.88 25C18.6466 25 18.4228 25.0913 18.2577 25.2538C18.0927 25.4164 18 25.6368 18 25.8667V50.1333C18 50.3632 18.0927 50.5836 18.2577 50.7462C18.4228 50.9087 18.6466 51 18.88 51H61.12C61.3534 51 61.5772 50.9087 61.7423 50.7462C61.9073 50.5836 62 50.3632 62 50.1333V25.8667C62 25.6368 61.9073 25.4164 61.7423 25.2538C61.5772 25.0913 61.3534 25 61.12 25H52.32V26.7333C52.3199 26.9152 52.2617 27.0923 52.1536 27.2398C52.0456 27.3872 51.8932 27.4975 51.7181 27.5549L50.0716 28.0957C50.032 28.2214 49.9836 28.3427 49.9352 28.4667H57.6C57.8334 28.4667 58.0572 28.558 58.2223 28.7205C58.3873 28.883 58.48 29.1035 58.48 29.3333V33.8261C59.0671 34.0306 59.562 34.4329 59.8771 34.9619C60.1922 35.4909 60.3073 36.1126 60.202 36.7171C60.0967 37.3216 59.7778 37.87 59.3016 38.2653C58.8255 38.6606 58.2228 38.8774 57.6 38.8774C56.9772 38.8774 56.3745 38.6606 55.8984 38.2653C55.4222 37.87 55.1033 37.3216 54.998 36.7171C54.8927 36.1126 55.0078 35.4909 55.3229 34.9619C55.638 34.4329 56.1329 34.0306 56.72 33.8261V30.2H49.5348L50.1209 31.3535C50.2033 31.5163 50.2317 31.7004 50.202 31.8799C50.1723 32.0594 50.0861 32.2251 49.9554 32.3537L49.68 32.6267V36.7754L51.1822 38.2548C51.347 38.4171 51.4397 38.6371 51.44 38.8667V41.6261C52.0271 41.8306 52.522 42.2329 52.8371 42.7619C53.1522 43.2909 53.2673 43.9126 53.162 44.5171C53.0567 45.1216 52.7378 45.67 52.2616 46.0653C51.7855 46.4606 51.1828 46.6774 50.56 46.6774C49.9372 46.6774 49.3345 46.4606 48.8584 46.0653C48.3822 45.67 48.0633 45.1216 47.958 44.5171C47.8527 43.9126 47.9678 43.2909 48.2829 42.7619C48.598 42.2329 49.0929 41.8306 49.68 41.6261V39.2255L48.1778 37.7461C48.0128 37.5836 47.92 37.3632 47.92 37.1333V34.36L47.4668 34.8055C47.3363 34.9341 47.168 35.0191 46.9857 35.0483C46.8035 35.0776 46.6165 35.0496 46.4513 34.9684L44.8998 34.204C44.3379 34.4946 43.7503 34.7342 43.1442 34.9199L42.5951 36.5414C42.5366 36.7139 42.4244 36.8639 42.2746 36.9701C42.1247 37.0763 41.9447 37.1334 41.76 37.1333H40.88V39.8928C41.4671 40.0972 41.962 40.4995 42.2771 41.0285C42.5922 41.5576 42.7073 42.1793 42.602 42.7838C42.4967 43.3883 42.1778 43.9366 41.7016 44.332C41.2255 44.7273 40.6228 44.9441 40 44.9441C39.3772 44.9441 38.7745 44.7273 38.2984 44.332C37.8222 43.9366 37.5033 43.3883 37.398 42.7838C37.2927 42.1793 37.4078 41.5576 37.7229 41.0285C38.038 40.4995 38.5329 40.0972 39.12 39.8928V37.1333H38.24C38.0552 37.1334 37.8751 37.0761 37.7252 36.9697C37.5753 36.8633 37.4633 36.7132 37.4049 36.5405L36.8558 34.919C36.2482 34.7336 35.6591 34.494 35.0958 34.2031L33.5443 34.9675C33.3791 35.0487 33.1921 35.0767 33.0099 35.0475C32.8276 35.0182 32.6593 34.9333 32.5288 34.8046L32.08 34.36V37.1333C32.08 37.3632 31.9872 37.5836 31.8222 37.7461L30.32 39.2255V41.6261C30.9071 41.8306 31.402 42.2329 31.7171 42.7619C32.0322 43.2909 32.1473 43.9126 32.042 44.5171C31.9367 45.1216 31.6178 45.67 31.1416 46.0653C30.6655 46.4606 30.0628 46.6774 29.44 46.6774C28.8172 46.6774 28.2145 46.4606 27.7384 46.0653C27.2622 45.67 26.9433 45.1216 26.838 44.5171C26.7327 43.9126 26.8478 43.2909 27.1629 42.7619C27.478 42.2329 27.9729 41.8306 28.56 41.6261V38.8667C28.5601 38.6368 28.6528 38.4164 28.8178 38.2539L30.32 36.7745V32.6267L30.0446 32.3545C29.9139 32.226 29.8277 32.0603 29.798 31.8808C29.7683 31.7013 29.7967 31.5171 29.8791 31.3544L30.4652 30.2H23.28V33.8261C23.8671 34.0306 24.362 34.4329 24.6771 34.9619C24.9922 35.4909 25.1073 36.1126 25.002 36.7171C24.8967 37.3216 24.5778 37.87 24.1016 38.2653C23.6255 38.6606 23.0228 38.8774 22.4 38.8774C21.7772 38.8774 21.1745 38.6606 20.6984 38.2653C20.2222 37.87 19.9033 37.3216 19.798 36.7171C19.6927 36.1126 19.8078 35.4909 20.1229 34.9619C20.438 34.4329 20.9329 34.0306 21.52 33.8261V29.3333C21.52 29.1035 21.6127 28.883 21.7777 28.7205C21.9428 28.558 22.1666 28.4667 22.4 28.4667H30.0648C30.0199 28.3427 29.968 28.2214 29.9284 28.0957L28.2819 27.5549C28.1068 27.4975 27.9544 27.3872 27.8464 27.2398C27.7383 27.0923 27.6801 26.9152 27.68 26.7333V25H18.88Z" fill="white"/>
<path d="M30 26.6191L31.4761 27.1117C31.6147 27.1582 31.7394 27.2385 31.8389 27.3455C31.9384 27.4525 32.0095 27.5827 32.0457 27.7242C32.2467 28.4912 32.5514 29.2272 32.9514 29.9117C33.0249 30.0373 33.066 30.1793 33.0709 30.3247C33.0758 30.4702 33.0444 30.6145 32.9794 30.7447L32.2794 32.136L33.8622 33.7189L35.2535 33.0189C35.3836 32.9534 35.528 32.9217 35.6736 32.9266C35.8191 32.9315 35.9611 32.9728 36.0865 33.0469C36.7709 33.447 37.5069 33.7514 38.274 33.9516C38.4155 33.9879 38.5457 34.059 38.6527 34.1585C38.7597 34.258 38.8401 34.3827 38.8865 34.5212L39.3809 36H41.6191L42.1117 34.523C42.1582 34.3845 42.2385 34.2598 42.3455 34.1603C42.4525 34.0608 42.5827 33.9896 42.7242 33.9534C43.4913 33.7532 44.2274 33.4488 44.9117 33.0486C45.0372 32.9746 45.1791 32.9332 45.3247 32.9283C45.4702 32.9235 45.6147 32.9552 45.7447 33.0206L47.136 33.7206L48.7189 32.1378L48.0189 30.7465C47.9539 30.6163 47.9224 30.4719 47.9273 30.3265C47.9322 30.181 47.9733 30.0391 48.0469 29.9135C48.4469 29.2289 48.7515 28.493 48.9525 27.726C48.9888 27.5845 49.0599 27.4543 49.1594 27.3473C49.2589 27.2403 49.3836 27.1599 49.5221 27.1135L51 26.6191V24.3809L49.5239 23.8883C49.3853 23.8418 49.2606 23.7615 49.1611 23.6545C49.0616 23.5475 48.9905 23.4173 48.9542 23.2758C48.7533 22.5088 48.4486 21.7728 48.0486 21.0883C47.9751 20.9627 47.934 20.8207 47.9291 20.6753C47.9242 20.5298 47.9557 20.3855 48.0206 20.2552L48.7206 18.864L47.1334 17.2838L45.7421 17.9837C45.6119 18.0487 45.4675 18.0802 45.3221 18.0753C45.1766 18.0704 45.0347 18.0293 44.9091 17.9557C44.2247 17.5556 43.4887 17.2512 42.7216 17.051C42.5801 17.0147 42.4499 16.9436 42.3429 16.8441C42.2359 16.7446 42.1555 16.6199 42.1091 16.4814L41.6191 15H39.3809L38.8883 16.477C38.8418 16.6155 38.7615 16.7402 38.6545 16.8397C38.5475 16.9392 38.4173 17.0104 38.2758 17.0466C37.5087 17.2468 36.7726 17.5512 36.0883 17.9514C35.9627 18.0249 35.8207 18.066 35.6753 18.0709C35.5298 18.0758 35.3855 18.0443 35.2553 17.9794L33.864 17.2838L32.2838 18.8666L32.9837 20.2579C33.0487 20.3881 33.0802 20.5325 33.0753 20.6779C33.0704 20.8234 33.0293 20.9653 32.9558 21.0909C32.5558 21.7754 32.2511 22.5114 32.0501 23.2784C32.0139 23.4199 31.9427 23.5501 31.8432 23.6571C31.7437 23.7641 31.619 23.8445 31.4805 23.8909L30 24.3809V26.6191ZM40.5 19.375C41.7114 19.375 42.8956 19.7342 43.9029 20.4072C44.9101 21.0803 45.6952 22.0369 46.1588 23.1561C46.6223 24.2753 46.7436 25.5068 46.5073 26.6949C46.271 27.8831 45.6876 28.9744 44.831 29.831C43.9744 30.6876 42.8831 31.271 41.6949 31.5073C40.5068 31.7436 39.2753 31.6223 38.1561 31.1588C37.0369 30.6952 36.0803 29.9101 35.4072 28.9029C34.7342 27.8956 34.375 26.7114 34.375 25.5C34.3769 23.8761 35.0228 22.3193 36.171 21.171C37.3193 20.0228 38.8761 19.3769 40.5 19.375Z" fill="white"/>
<path d="M40.5 30C42.9853 30 45 27.9853 45 25.5C45 23.0147 42.9853 21 40.5 21C38.0147 21 36 23.0147 36 25.5C36 27.9853 38.0147 30 40.5 30Z" fill="white"/>
<path d="M35.5546 60L31 65H48L43.4454 60H35.5546Z" fill="white"/>
<path d="M51 46C51.5523 46 52 45.5523 52 45C52 44.4477 51.5523 44 51 44C50.4477 44 50 44.4477 50 45C50 45.5523 50.4477 46 51 46Z" fill="white"/>
<path d="M63.3621 22H50.4274C50.4723 22.126 50.5241 22.2493 50.5637 22.377L52.2089 22.9268C52.3839 22.9852 52.5362 23.0972 52.6441 23.2471C52.7521 23.397 52.8102 23.5771 52.8103 23.7619H61.6035C62.3031 23.7619 62.974 24.0403 63.4687 24.536C63.9635 25.0316 64.2414 25.7038 64.2414 26.4048V51.0714C64.2414 51.7724 63.9635 52.4446 63.4687 52.9402C62.974 53.4358 62.3031 53.7143 61.6035 53.7143H19.3966C18.6969 53.7143 18.026 53.4358 17.5313 52.9402C17.0365 52.4446 16.7586 51.7724 16.7586 51.0714V26.4048C16.7586 25.7038 17.0365 25.0316 17.5313 24.536C18.026 24.0403 18.6969 23.7619 19.3966 23.7619H28.1897C28.1898 23.5771 28.248 23.397 28.3559 23.2471C28.4638 23.0972 28.6161 22.9852 28.7911 22.9268L30.4363 22.377C30.4759 22.2493 30.5242 22.126 30.5726 22H17.6379C16.9383 22 16.2673 22.2784 15.7726 22.7741C15.2779 23.2697 15 23.9419 15 24.6429V56.3571C15 57.0581 15.2779 57.7303 15.7726 58.2259C16.2673 58.7216 16.9383 59 17.6379 59H63.3621C64.0617 59 64.7327 58.7216 65.2274 58.2259C65.7221 57.7303 66 57.0581 66 56.3571V24.6429C66 23.9419 65.7221 23.2697 65.2274 22.7741C64.7327 22.2784 64.0617 22 63.3621 22ZM41.3793 57.2381H39.6207V55.4762H41.3793V57.2381Z" fill="white"/>
<path d="M58 38C58.5523 38 59 37.5523 59 37C59 36.4477 58.5523 36 58 36C57.4477 36 57 36.4477 57 37C57 37.5523 57.4477 38 58 38Z" fill="white"/>
</g>
<defs>
<clipPath id="clip0_21_408">
<rect width="80" height="80" rx="8" fill="white"/>
</clipPath>
</defs>
</svg>
