<svg width="80" height="80" viewBox="0 0 80 80" fill="none" xmlns="http://www.w3.org/2000/svg">
<g clip-path="url(#clip0_21_417)">
<rect width="80" height="80" rx="8" fill="#00A2ED"/>
<rect y="36" width="93" height="92" rx="41" transform="rotate(-38.9961 0 36)" fill="#2D3336"/>
<path d="M48 57.9738C47.0969 58.3307 46.1636 58.63 45.1982 58.8488L44.8071 63.8643C44.7573 64.5047 44.2133 65 43.5609 65H38.2151C37.5627 65 37.0204 64.5047 36.9707 63.866L36.5796 58.8505C34.4853 58.3763 32.528 57.5625 30.7591 56.4723L26.8747 59.75C26.3787 60.1683 25.6409 60.1402 25.1787 59.6852L21.3991 55.9647C20.9369 55.5098 20.9102 54.7835 21.3333 54.2952L24.6631 50.4715C23.5573 48.7303 22.7307 46.8035 22.2471 44.742L17.152 44.357C16.5031 44.308 16 43.7725 16 43.1303V37.868C16 37.2257 16.5031 36.692 17.152 36.643L22.2471 36.258C22.7289 34.1965 23.5556 32.2698 24.6631 30.5285L21.3351 26.7047C20.9102 26.2182 20.9387 25.4902 21.3991 25.037L25.1787 21.3165C25.6391 20.8633 26.3787 20.8352 26.8747 21.2517L30.7591 24.5295C32.528 23.441 34.4853 22.6272 36.5796 22.1512L36.9707 17.1357C37.0204 16.4952 37.5644 16 38.2169 16H43.5627C44.2151 16 44.7573 16.4952 44.8071 17.134L44.8302 17.4263C43.4507 19.5105 42.6667 21.9675 42.6667 24.5662C42.6667 26.6698 43.1716 28.6858 44.0942 30.4848C43.0827 30.1698 42.0053 30 40.8889 30C34.9973 30 30.2222 34.7005 30.2222 40.5C30.2222 46.2995 34.9973 51 40.8889 51C43.6249 51 46.112 49.978 48 48.3102V57.9738Z" fill="white"/>
<path d="M58.8182 33.0402V60.6126C58.8182 63.0362 56.8854 65 54.5 65C52.1146 65 50.1818 63.0362 50.1818 60.6126V33.0402C47.1073 31.4415 45 28.2 45 24.4497C45 20.8256 46.9691 17.6737 49.8778 16.024C50.0108 15.9503 50.1818 16.0556 50.1818 16.2101V26.3907L54.5 28.1456L58.8182 26.3907V16.2101C58.8182 16.0556 58.9892 15.9503 59.1222 16.0258C62.0309 17.6755 64 20.8256 64 24.4514C64 28.2 61.8927 31.4432 58.8182 33.0402Z" fill="white"/>
</g>
<defs>
<clipPath id="clip0_21_417">
<rect width="80" height="80" rx="8" fill="white"/>
</clipPath>
</defs>
</svg>
