<svg width="80" height="80" viewBox="0 0 80 80" fill="none" xmlns="http://www.w3.org/2000/svg">
<g clip-path="url(#clip0_21_426)">
<rect width="80" height="80" rx="8" fill="#00A2ED"/>
<rect y="36" width="93" height="92" rx="41" transform="rotate(-38.9961 0 36)" fill="#2D3336"/>
<g clip-path="url(#clip1_21_426)">
<path fill-rule="evenodd" clip-rule="evenodd" d="M41.5139 61H36.8329C36.3975 61 36.1797 60.7817 36.0709 60.4543L34.5468 54.4518C33.5671 54.1244 32.5873 53.6878 31.6076 53.1421L26.7089 56.3071C26.3823 56.4162 25.9468 56.4162 25.7291 56.198L22.3544 52.8147C22.1367 52.5964 22.1367 52.1599 22.2456 51.9416L25.4025 46.703C24.9671 45.6117 24.5316 44.6294 24.3139 43.6472L18.6532 42.3376C18.3266 42.2284 18 41.901 18 41.5736V36.7716C18 36.4442 18.3266 36.1168 18.5443 36.0076L24.5316 34.5888C24.8582 33.6066 25.2937 32.6244 25.838 31.6421L22.7899 26.731C22.5722 26.4036 22.681 25.967 22.8987 25.7487L26.1646 22.3655C26.3823 22.1472 26.8177 22.0381 27.1443 22.2563L32.3696 25.4213C33.2405 24.8756 34.2203 24.5482 35.4177 24.3299L36.6152 18.6548C36.7241 18.2183 37.0506 18 37.4861 18H42.1671C42.4937 18 42.8203 18.2183 42.9291 18.5457L44.3443 24.5482C45.4329 24.8756 46.4127 25.3122 47.3924 25.8579L52.2911 22.802C52.6177 22.5838 52.9443 22.6929 53.2709 22.9112L56.5367 26.1853C56.8633 26.5127 56.8633 26.8401 56.6456 27.1675L53.4886 32.4061C54.0329 33.2792 54.3595 34.3706 54.6861 35.4619L60.3468 36.7716C60.6734 36.7716 61 37.099 61 37.5355V42.2284C61 42.5558 60.6734 42.8832 60.3468 42.9924L54.4684 44.4112C54.1418 45.5025 53.7063 46.3756 53.0532 47.3579L56.1013 52.269C56.319 52.5964 56.319 53.033 56.1013 53.2513L52.7266 56.6345C52.5089 56.8528 52.0734 56.9619 51.7468 56.7437L46.5215 53.5787C45.5418 54.1244 44.4532 54.4518 43.4734 54.6701L42.1671 60.3452C42.1671 60.7817 41.8405 61 41.5139 61ZM39.5544 47.5761C35.3089 47.5761 31.8253 44.0838 31.8253 39.8274C31.8253 35.5711 35.3089 32.1878 39.5544 32.1878C43.8 32.1878 47.1747 35.5711 47.1747 39.8274C47.1747 44.0838 43.8 47.5761 39.5544 47.5761ZM39.5544 33.7157C36.1797 33.7157 33.4582 36.4442 33.4582 39.8274C33.4582 43.2107 36.1797 45.9391 39.5544 45.9391C42.9291 45.9391 45.6506 43.2107 45.6506 39.8274C45.6506 36.4442 42.9291 33.7157 39.5544 33.7157Z" fill="white"/>
<path fill-rule="evenodd" clip-rule="evenodd" d="M40.0165 68C31.9275 68 24.2757 64.5 18.9195 58.4844C13.6726 52.3594 11.1585 44.2656 12.2516 36.2812C12.3609 35.8438 12.6888 35.5156 13.2354 35.625C13.6726 35.625 13.8912 36.0625 13.8912 36.5C12.7981 44.0469 15.203 51.7031 20.1219 57.3906C25.1502 63.0781 32.3647 66.3594 40.0165 66.3594C45.9192 66.3594 51.4941 64.5 56.1945 60.8906C56.5224 60.5625 57.0689 60.6719 57.2876 61C57.6155 61.4375 57.5062 61.875 57.1782 62.2031C52.2593 66.0312 46.3565 68 40.0165 68ZM66.579 46.5625H66.4697C66.0324 46.4531 65.7045 46.125 65.8138 45.6875C65.8138 45.4688 65.9231 45.25 65.9231 45.1406C66.0324 44.5938 66.0324 44.4844 66.1417 43.7188C66.1417 43.2812 66.579 42.9531 66.9069 42.9531C67.4534 43.0625 67.7814 43.3906 67.6721 43.8281C67.5628 44.7031 67.5628 44.9219 67.4534 45.4688C67.4534 45.5781 67.4534 45.6875 67.3441 46.0156C67.2348 46.3438 66.9069 46.5625 66.579 46.5625ZM67.2348 40.7656C66.6883 40.7656 66.3603 40.4375 66.3603 40C66.3603 25.4531 54.5548 13.6406 40.0165 13.6406C33.4578 13.6406 27.2271 15.9375 22.5268 20.3125C22.1988 20.5312 21.6523 20.5312 21.3243 20.2031C21.1057 19.9844 21.1057 19.4375 21.4337 19.1094C26.5713 14.5156 33.1299 12 40.0165 12C55.4293 12 68 24.5781 68 40C68 40.4375 67.6721 40.7656 67.2348 40.7656Z" fill="white"/>
<path fill-rule="evenodd" clip-rule="evenodd" d="M19.5 27C17.0357 27 15 25.0482 15 22.4458C15 20.0602 17.0357 18 19.5 18C22.0714 18 24 20.0602 24 22.4458C24 25.0482 22.0714 27 19.5 27Z" fill="white"/>
<path fill-rule="evenodd" clip-rule="evenodd" d="M59.5521 63C56.9509 63 55 60.9643 55 58.5C55 56.0357 56.9509 54 59.5521 54C62.045 54 63.9959 56.0357 63.9959 58.5C64.1043 60.9643 62.045 63 59.5521 63Z" fill="white"/>
</g>
</g>
<defs>
<clipPath id="clip0_21_426">
<rect width="80" height="80" rx="8" fill="white"/>
</clipPath>
<clipPath id="clip1_21_426">
<rect width="56" height="56" fill="white" transform="translate(12 12)"/>
</clipPath>
</defs>
</svg>
