<svg width="80" height="80" viewBox="0 0 80 80" fill="none" xmlns="http://www.w3.org/2000/svg">
<g clip-path="url(#clip0_21_402)">
<rect width="80" height="80" rx="8" fill="#00A2ED"/>
<rect y="36" width="93" height="92" rx="41" transform="rotate(-38.9961 0 36)" fill="#2D3336"/>
<path d="M64.2414 52.6964V41.235C64.2413 41.0042 64.1487 40.7829 63.9837 40.6198L56.9493 33.6584C56.8676 33.5776 56.7707 33.5134 56.6641 33.4697C56.5574 33.426 56.4431 33.4034 56.3276 33.4034H46.6552V29.9228H54.569C54.8022 29.9228 55.0258 29.8311 55.1907 29.6679C55.3556 29.5047 55.4483 29.2834 55.4483 29.0526C55.4483 28.8218 55.3556 28.6005 55.1907 28.4373C55.0258 28.2741 54.8022 28.1824 54.569 28.1824H46.6552V23.8316C46.6532 23.1396 46.3755 22.4764 45.8823 21.9858C45.638 21.7426 45.3474 21.5498 45.0272 21.4185C44.7071 21.2872 44.3638 21.2201 44.0172 21.221H39.6207V16.8702C39.6207 16.6394 39.528 16.4181 39.3631 16.2549C39.1982 16.0917 38.9746 16 38.7414 16C38.5082 16 38.2845 16.0917 38.1196 16.2549C37.9547 16.4181 37.8621 16.6394 37.8621 16.8702V21.221H34.3448V16.8702C34.3448 16.6394 34.2522 16.4181 34.0873 16.2549C33.9224 16.0917 33.6987 16 33.4655 16C33.2323 16 33.0087 16.0917 32.8438 16.2549C32.6788 16.4181 32.5862 16.6394 32.5862 16.8702V21.221H29.069V16.8702C29.069 16.6394 28.9763 16.4181 28.8114 16.2549C28.6465 16.0917 28.4229 16 28.1897 16C27.9564 16 27.7328 16.0917 27.5679 16.2549C27.403 16.4181 27.3103 16.6394 27.3103 16.8702V21.221H22.9138C22.5672 21.2201 22.224 21.2872 21.9038 21.4185C21.5837 21.5498 21.293 21.7426 21.0487 21.9858C20.5556 22.4764 20.2779 23.1396 20.2759 23.8316V28.1824H15.8793C15.6461 28.1824 15.4224 28.2741 15.2575 28.4373C15.0926 28.6005 15 28.8218 15 29.0526C15 29.2834 15.0926 29.5047 15.2575 29.6679C15.4224 29.8311 15.6461 29.9228 15.8793 29.9228H20.2759V33.4034H15.8793C15.6461 33.4034 15.4224 33.4951 15.2575 33.6583C15.0926 33.8215 15 34.0428 15 34.2736C15 34.5044 15.0926 34.7257 15.2575 34.8889C15.4224 35.0521 15.6461 35.1438 15.8793 35.1438H20.2759V38.6245H15.8793C15.6461 38.6245 15.4224 38.7162 15.2575 38.8793C15.0926 39.0425 15 39.2639 15 39.4947C15 39.7254 15.0926 39.9468 15.2575 40.11C15.4224 40.2731 15.6461 40.3648 15.8793 40.3648H20.2759V44.7157C20.276 45.408 20.554 46.0719 21.0487 46.5614C21.5434 47.0509 22.2142 47.326 22.9138 47.3262H27.3103V53.0571L22.5497 57.7683H20.1256C19.9182 57.1877 19.51 56.6983 18.9733 56.3868C18.4365 56.0752 17.8058 55.9614 17.1924 56.0655C16.5791 56.1697 16.0228 56.485 15.6217 56.9558C15.2206 57.4267 15.0006 58.0226 15.0006 58.6384C15.0006 59.2543 15.2206 59.8502 15.6217 60.3211C16.0228 60.7919 16.5791 61.1072 17.1924 61.2114C17.8058 61.3155 18.4365 61.2017 18.9733 60.8901C19.51 60.5785 19.9182 60.0892 20.1256 59.5086H22.9138C23.0293 59.5086 23.1436 59.4861 23.2503 59.4424C23.3569 59.3986 23.4539 59.3345 23.5355 59.2537L28.8113 54.0326C28.9762 53.8695 29.0689 53.6482 29.069 53.4174V47.3262H32.5862V54.7974L25.8094 61.5039C25.7254 61.5842 25.6584 61.6802 25.6123 61.7864C25.5662 61.8925 25.542 62.0067 25.541 62.1223C25.5399 62.2378 25.5622 62.3524 25.6064 62.4593C25.6506 62.5663 25.7159 62.6634 25.7985 62.7451C25.881 62.8268 25.9792 62.8914 26.0873 62.9352C26.1953 62.979 26.3111 63.001 26.4279 63C26.5446 62.999 26.66 62.975 26.7673 62.9294C26.8746 62.8838 26.9716 62.8175 27.0527 62.7343L34.0872 55.773C34.2521 55.6098 34.3448 55.3885 34.3448 55.1578V47.3262H37.8621V51.6771C37.8621 51.9078 37.9548 52.1291 38.1197 52.2923L41.6369 55.773C41.7186 55.8538 41.8155 55.9179 41.9221 55.9617C42.0288 56.0054 42.1432 56.0279 42.2586 56.0279H53.8399C54.0474 56.6085 54.4555 57.0979 54.9922 57.4094C55.529 57.721 56.1598 57.8348 56.7731 57.7307C57.3864 57.6265 57.9428 57.3112 58.3438 56.8404C58.7449 56.3695 58.9649 55.7736 58.9649 55.1578C58.9649 54.5419 58.7449 53.946 58.3438 53.4751C57.9428 53.0043 57.3864 52.689 56.7731 52.5848C56.1598 52.4807 55.529 52.5945 54.9922 52.9061C54.4555 53.2177 54.0474 53.707 53.8399 54.2876H42.6227L39.6207 51.3167V47.3262H44.0172C44.7168 47.326 45.3877 47.0509 45.8823 46.5614C46.377 46.0719 46.655 45.408 46.6552 44.7157V40.3648H52.4462L57.4645 45.3309C57.6304 45.4894 57.8525 45.5771 58.083 45.5751C58.3136 45.5732 58.5341 45.4816 58.6972 45.3203C58.8602 45.159 58.9527 44.9407 58.9547 44.7126C58.9567 44.4844 58.8681 44.2646 58.7079 44.1005L53.432 38.8794C53.3504 38.7986 53.2535 38.7345 53.1468 38.6907C53.0401 38.647 52.9258 38.6245 52.8103 38.6245H46.6552V35.1438H55.9635L62.4828 41.5953V52.6964C61.8961 52.9017 61.4016 53.3056 61.0867 53.8367C60.7719 54.3679 60.6569 54.9921 60.7621 55.5991C60.8674 56.206 61.186 56.7566 61.6618 57.1535C62.1376 57.5504 62.7398 57.7681 63.3621 57.7681C63.9843 57.7681 64.5866 57.5504 65.0624 57.1535C65.5381 56.7566 65.8568 56.206 65.962 55.5991C66.0672 54.9921 65.9523 54.3679 65.6374 53.8367C65.3225 53.3056 64.8281 52.9017 64.2414 52.6964ZM17.6379 59.5086C17.464 59.5086 17.294 59.4576 17.1494 59.362C17.0048 59.2664 16.8921 59.1305 16.8256 58.9714C16.759 58.8124 16.7416 58.6375 16.7755 58.4687C16.8094 58.2999 16.8932 58.1448 17.0162 58.0231C17.1391 57.9014 17.2958 57.8186 17.4664 57.785C17.637 57.7514 17.8138 57.7687 17.9744 57.8345C18.1351 57.9004 18.2724 58.0119 18.3691 58.155C18.4657 58.2981 18.5172 58.4663 18.5172 58.6384C18.517 58.8692 18.4243 59.0904 18.2595 59.2535C18.0946 59.4167 17.8711 59.5084 17.6379 59.5086ZM56.3276 54.2876C56.5015 54.2876 56.6715 54.3386 56.8161 54.4342C56.9607 54.5299 57.0734 54.6658 57.14 54.8248C57.2065 54.9838 57.2239 55.1587 57.19 55.3275C57.1561 55.4963 57.0723 55.6514 56.9494 55.7731C56.8264 55.8948 56.6697 55.9776 56.4991 56.0112C56.3286 56.0448 56.1518 56.0275 55.9911 55.9617C55.8304 55.8958 55.6931 55.7843 55.5965 55.6412C55.4998 55.4981 55.4483 55.3299 55.4483 55.1578C55.4485 54.927 55.5412 54.7058 55.7061 54.5427C55.8709 54.3795 56.0944 54.2878 56.3276 54.2876ZM39.6207 39.4947C39.6207 39.7254 39.528 39.9468 39.3631 40.11C39.1982 40.2731 38.9746 40.3648 38.7414 40.3648H28.1897C27.9564 40.3648 27.7328 40.2731 27.5679 40.11C27.403 39.9468 27.3103 39.7254 27.3103 39.4947V29.0526C27.3103 28.8218 27.403 28.6005 27.5679 28.4373C27.7328 28.2741 27.9564 28.1824 28.1897 28.1824H38.7414C38.9746 28.1824 39.1982 28.2741 39.3631 28.4373C39.528 28.6005 39.6207 28.8218 39.6207 29.0526V39.4947ZM63.3621 56.0279C63.1882 56.0279 63.0182 55.9769 62.8736 55.8813C62.7289 55.7857 62.6162 55.6498 62.5497 55.4908C62.4831 55.3318 62.4657 55.1568 62.4997 54.988C62.5336 54.8192 62.6173 54.6641 62.7403 54.5424C62.8633 54.4208 63.02 54.3379 63.1905 54.3043C63.3611 54.2707 63.5379 54.288 63.6986 54.3538C63.8592 54.4197 63.9966 54.5312 64.0932 54.6743C64.1898 54.8174 64.2414 54.9857 64.2414 55.1578C64.2412 55.3885 64.1485 55.6097 63.9836 55.7728C63.8187 55.936 63.5952 56.0277 63.3621 56.0279Z" fill="white"/>
</g>
<defs>
<clipPath id="clip0_21_402">
<rect width="80" height="80" rx="8" fill="white"/>
</clipPath>
</defs>
</svg>
