<svg width="18" height="18" viewBox="0 0 18 18" fill="none" xmlns="http://www.w3.org/2000/svg">
<path fill-rule="evenodd" clip-rule="evenodd" d="M9 3C6.51472 3 4.5 5.01472 4.5 7.5C4.5 8.2709 4.77296 9.1326 5.23613 10.0259C5.69593 10.9126 6.3177 11.7819 6.95395 12.5545C7.58837 13.3248 8.22488 13.9843 8.70359 14.4516C8.81122 14.5567 8.91064 14.6518 9 14.7361C9.08935 14.6518 9.18878 14.5567 9.29641 14.4516C9.77512 13.9843 10.4116 13.3248 11.0461 12.5545C11.6823 11.7819 12.3041 10.9126 12.7639 10.0259C13.227 9.1326 13.5 8.2709 13.5 7.5C13.5 5.01472 11.4853 3 9 3ZM9 15.75C8.51191 16.3194 8.51177 16.3193 8.51162 16.3192L8.51003 16.3178L8.50625 16.3146L8.4931 16.3032C8.48188 16.2934 8.46583 16.2794 8.44527 16.2613C8.40414 16.2251 8.34492 16.1724 8.27019 16.1045C8.12079 15.9688 7.90908 15.7722 7.65578 15.525C7.15012 15.0313 6.47413 14.3314 5.79605 13.508C5.1198 12.6869 4.42907 11.728 3.9045 10.7163C3.38329 9.71115 3 8.6041 3 7.5C3 4.18629 5.68629 1.5 9 1.5C12.3137 1.5 15 4.18629 15 7.5C15 8.6041 14.6167 9.71115 14.0955 10.7163C13.5709 11.728 12.8802 12.6869 12.2039 13.508C11.5259 14.3314 10.8499 15.0313 10.3442 15.525C10.0909 15.7722 9.87921 15.9688 9.72981 16.1045C9.65508 16.1724 9.59586 16.2251 9.55473 16.2613C9.53417 16.2794 9.51812 16.2934 9.5069 16.3032L9.49375 16.3146L9.48997 16.3178L9.48879 16.3188C9.48864 16.319 9.48809 16.3194 9 15.75ZM9 15.75L8.51162 16.3192C8.79248 16.5599 9.20723 16.5602 9.48809 16.3194L9 15.75ZM9 6C8.17157 6 7.5 6.67157 7.5 7.5C7.5 8.32843 8.17157 9 9 9C9.82843 9 10.5 8.32843 10.5 7.5C10.5 6.67157 9.82843 6 9 6ZM6 7.5C6 5.84315 7.34315 4.5 9 4.5C10.6569 4.5 12 5.84315 12 7.5C12 9.15685 10.6569 10.5 9 10.5C7.34315 10.5 6 9.15685 6 7.5Z" fill="#00A2ED"/>
</svg>
